# xmcd
#
# Track frame offsets:
#	150
#	20266
#	39276
#	80619
#	94497
#	115872
#	133031
#	148239
#	165475
#	176203
#	195932
#	223234
#	243104
#	264429
#	281605
#	296968
#	313286
#	334445
#
# Disc length: 4733 seconds
#
# Revision: 0
# Processed by: cddbd v1.5.2PL0 Copyright (c) Steve Scherf et al.
# Submitted via: EZCDAudioConverter 7.1.5.1
#
DISCID=18127b12
DTITLE=Artistas Varios - Antioquia Vive La Musica 2009 CD3
DYEAR=2009
DGENRE=Musica Colombiana
TTITLE0=Banda Sinfonica de La Ceja del Tambo - Margara la vieja
TTITLE1=Banda de Musica "Mauel J. Posada" de Caldas - Gabriela
TTITLE2=Banda Sinfonica Juvenil de Donmatias - Colombianisima
TTITLE3=Banda Sinfonica Ciudad Santiago de Arma de Rionegro - Rio claro
TTITLE4=Banda Municipal de El Retiro - Macondo
TTITLE5=Banda Sinfonica Juvenil de La Union - Paisillo
TTITLE6=Banda Infantil Municipal de Betulia - San Juanito
TTITLE7=Banda de Musica Juvenil El Porvenir Rionegro - El chambu
TTITLE8=Banda Escuela de Musica Municipal de Remedios - Pacho porro
TTITLE9=Banda Sinfonica de La Ceja del Tambo - Maroma
TTITLE10=Banda de Musica "Mauel J. Posada" de Caldas - Bambuco y joropo
TTITLE11=Banda Sinfonica Juvenil de Donmatias - Fandanguillo
TTITLE12=Banda Sinfonica Ciudad Santiago de Arma de Rionegro - Momo
TTITLE13=Banda Municipal de El Retiro - El gran paisa de amaga
TTITLE14=Banda Sinfonica Juvenil de La Union - Gloria Maria
TTITLE15=Banda Infantil Municipal de Betulia - Pa'Don Rafa
TTITLE16=Banda de Musica Juvenil El Porvenir Rionegro - La casa en el aire
TTITLE17=Banda Escuela de Musica Municipal de Remedios - Atrio parroquial
EXTD=
EXTT0=
EXTT1=
EXTT2=
EXTT3=
EXTT4=
EXTT5=
EXTT6=
EXTT7=
EXTT8=
EXTT9=
EXTT10=
EXTT11=
EXTT12=
EXTT13=
EXTT14=
EXTT15=
EXTT16=
EXTT17=
PLAYORDER=
